<svg width="28" height="27" viewBox="0 0 28 27" fill="none" xmlns="http://www.w3.org/2000/svg">
<path d="M7.38641 5.61502H23.8898L21.6445 13.4737H8.59546M22.7672 17.9643H9.2952L7.04988 3.36969H3.68188M10.4179 22.455C10.4179 23.075 9.91523 23.5776 9.2952 23.5776C8.67517 23.5776 8.17254 23.075 8.17254 22.455C8.17254 21.8349 8.67517 21.3323 9.2952 21.3323C9.91523 21.3323 10.4179 21.8349 10.4179 22.455ZM22.7672 22.455C22.7672 23.075 22.2645 23.5776 21.6445 23.5776C21.0245 23.5776 20.5218 23.075 20.5218 22.455C20.5218 21.8349 21.0245 21.3323 21.6445 21.3323C22.2645 21.3323 22.7672 21.8349 22.7672 22.455Z" stroke="white" stroke-width="2.15551" stroke-linecap="round" stroke-linejoin="round"/>
</svg>
