<svg width="28" height="28" viewBox="0 0 28 28" fill="none" xmlns="http://www.w3.org/2000/svg">
<path d="M3.8643 9.60863C4.109 7.96416 5.52092 6.74679 7.18349 6.74679H14.2193C16.2693 6.74679 17.8402 8.56874 17.5385 10.5964L15.5989 23.6308C15.3542 25.2752 13.9423 26.4926 12.2798 26.4926H5.24397C3.19397 26.4926 1.62307 24.6707 1.92479 22.643L3.8643 9.60863Z" stroke="#00543A" stroke-width="2.33135"/>
<path d="M11.8299 3.9759C12.097 2.35497 13.4982 1.16568 15.141 1.16568H22.1545C24.2256 1.16568 25.8022 3.02335 25.4655 5.06691L22.3986 23.6824C22.1316 25.3033 20.7303 26.4926 19.0875 26.4926H12.0741C10.003 26.4926 8.42632 24.6349 8.76299 22.5914L11.8299 3.9759Z" stroke="#00543A" stroke-width="2.33135"/>
</svg>
