<svg width="360" height="640" viewBox="0 0 360 640" fill="none" xmlns="http://www.w3.org/2000/svg">
<rect width="360" height="640" fill="black"/>
<path d="M241 318.756V319.268L180.756 375.242C180.285 375.681 179.813 375.681 179.341 375.242L119 319.17V318.17C119.081 318.17 119.171 318.17 119.268 318.17C119.399 318.186 119.496 318.129 119.561 317.999C127.255 299.634 134.632 282.017 141.692 265.149C141.745 265.023 141.825 264.91 141.926 264.819C142.027 264.728 142.147 264.66 142.278 264.62C142.408 264.581 142.546 264.57 142.681 264.59C142.816 264.61 142.945 264.659 143.058 264.734L179.414 289.061C179.594 289.178 179.804 289.24 180.016 289.24C180.229 289.24 180.435 289.178 180.61 289.061L216.868 264.807C217.011 264.713 217.173 264.651 217.341 264.625C217.51 264.598 217.682 264.609 217.845 264.655C218.007 264.702 218.157 264.783 218.284 264.894C218.41 265.004 218.51 265.141 218.576 265.295L241 318.756ZM180.464 298.65C180.325 298.739 180.164 298.787 180 298.787C179.836 298.787 179.675 298.739 179.536 298.65L146.523 276.592C146.42 276.525 146.303 276.481 146.181 276.463C146.059 276.446 145.935 276.454 145.817 276.489C145.699 276.524 145.589 276.584 145.496 276.665C145.404 276.746 145.329 276.846 145.279 276.958L128.711 316.682C128.646 316.844 128.632 317.022 128.672 317.192C128.711 317.362 128.801 317.516 128.931 317.633L179.439 364.603C179.597 364.752 179.807 364.836 180.024 364.836C180.242 364.836 180.452 364.752 180.61 364.603L231.094 317.682C231.228 317.563 231.322 317.405 231.361 317.23C231.401 317.054 231.384 316.871 231.313 316.706L214.746 276.983C214.695 276.87 214.621 276.77 214.528 276.689C214.435 276.608 214.326 276.548 214.208 276.514C214.089 276.479 213.965 276.47 213.843 276.488C213.721 276.506 213.605 276.55 213.501 276.617L180.464 298.65Z" fill="#BDFF00"/>
<path d="M144.059 306.165L174.144 312.509C174.294 312.539 174.432 312.613 174.539 312.722C174.646 312.831 174.717 312.97 174.744 313.121C174.77 313.271 174.75 313.427 174.687 313.566C174.623 313.705 174.519 313.821 174.388 313.9L162.53 321.586C162.401 321.669 162.251 321.71 162.099 321.706C161.946 321.702 161.799 321.651 161.676 321.562L143.449 307.507C143.313 307.403 143.216 307.256 143.175 307.09C143.133 306.924 143.149 306.749 143.22 306.594C143.291 306.438 143.412 306.311 143.565 306.233C143.717 306.155 143.891 306.131 144.059 306.165Z" fill="#BDFF00"/>
<path d="M185.344 313.51C185.262 313.46 185.198 313.387 185.16 313.3C185.122 313.213 185.112 313.116 185.13 313.023C185.149 312.93 185.196 312.844 185.265 312.779C185.333 312.713 185.42 312.67 185.514 312.656L215.356 306.458C217.584 305.986 217.804 306.45 216.014 307.849L199.008 321.122C198.702 321.358 198.333 321.494 197.953 321.511C197.572 321.529 197.199 321.427 196.885 321.22L185.344 313.51Z" fill="#BDFF00"/>
<path d="M189.15 326.295L180.61 338.032C180.542 338.123 180.453 338.196 180.352 338.247C180.25 338.298 180.138 338.324 180.024 338.324C179.911 338.324 179.799 338.298 179.697 338.247C179.595 338.196 179.507 338.123 179.439 338.032L170.899 326.344C170.817 326.235 170.768 326.106 170.755 325.971C170.743 325.835 170.769 325.699 170.83 325.577C170.89 325.456 170.984 325.354 171.1 325.282C171.215 325.211 171.348 325.173 171.484 325.173L188.564 325.124C188.7 325.124 188.834 325.162 188.949 325.233C189.065 325.305 189.158 325.407 189.219 325.529C189.28 325.65 189.306 325.786 189.293 325.922C189.281 326.057 189.232 326.186 189.15 326.295Z" fill="#BDFF00"/>
</svg>
