<svg width="122" height="122" viewBox="0 0 122 122" fill="none" xmlns="http://www.w3.org/2000/svg">
<path d="M122 59.7556V60.268L61.7564 116.242C61.2847 116.681 60.8129 116.681 60.3412 116.242L0 60.1704V59.17C0.0813333 59.17 0.1708 59.17 0.2684 59.17C0.398533 59.1863 0.496133 59.1294 0.5612 58.9992C8.25533 40.6342 15.6323 23.0174 22.692 6.14883C22.7447 6.02307 22.8246 5.9105 22.9258 5.81913C23.0271 5.72776 23.1472 5.65986 23.2777 5.62024C23.4082 5.58063 23.5458 5.57029 23.6808 5.58995C23.8157 5.60962 23.9446 5.65881 24.0584 5.73403L60.4144 30.0608C60.5945 30.1778 60.8037 30.2401 61.0162 30.2401C61.2288 30.2401 61.4352 30.1778 61.61 30.0608L97.8684 5.80723C98.0113 5.71314 98.1727 5.65078 98.3414 5.62454C98.51 5.59829 98.6818 5.6088 98.8446 5.65532C99.0074 5.70183 99.1573 5.78323 99.2837 5.89378C99.4102 6.00434 99.5101 6.14137 99.5764 6.29523L122 59.7556ZM61.4636 39.65C61.3255 39.7393 61.1645 39.7868 61 39.7868C60.8355 39.7868 60.6745 39.7393 60.5364 39.65L27.5232 17.5924C27.4199 17.5253 27.3032 17.4813 27.1813 17.4634C27.0594 17.4456 26.935 17.4544 26.8168 17.4892C26.6986 17.5239 26.5893 17.5839 26.4964 17.6649C26.4035 17.7459 26.3293 17.846 26.2788 17.9584L9.7112 57.6816C9.64612 57.8437 9.63229 58.0218 9.67155 58.1919C9.71082 58.3621 9.8013 58.5161 9.9308 58.6332L60.4388 105.603C60.5972 105.752 60.8067 105.836 61.0244 105.836C61.2421 105.836 61.4516 105.752 61.61 105.603L112.094 58.682C112.228 58.5631 112.322 58.4048 112.361 58.2295C112.401 58.0543 112.384 57.8711 112.313 57.706L95.7456 17.9828C95.6951 17.8704 95.6209 17.7703 95.528 17.6893C95.4351 17.6083 95.3258 17.5483 95.2076 17.5136C95.0894 17.4788 94.965 17.47 94.8431 17.4878C94.7212 17.5057 94.6045 17.5497 94.5012 17.6168L61.4636 39.65Z" fill="#BDFF00"/>
<path d="M25.0588 47.1652L55.144 53.5092C55.2941 53.5386 55.4317 53.6128 55.5388 53.722C55.6458 53.8312 55.7173 53.9702 55.7437 54.1208C55.7701 54.2714 55.7503 54.4265 55.6868 54.5656C55.6233 54.7047 55.5191 54.8213 55.388 54.9L43.5296 62.586C43.4014 62.6685 43.2512 62.7103 43.0988 62.7059C42.9464 62.7016 42.7989 62.6513 42.6756 62.5616L24.4488 48.5072C24.313 48.4033 24.2164 48.2563 24.1748 48.0904C24.1332 47.9244 24.1491 47.7493 24.2199 47.5935C24.2907 47.4378 24.4122 47.3107 24.5645 47.2329C24.7169 47.1551 24.8911 47.1312 25.0588 47.1652Z" fill="#BDFF00"/>
<path d="M66.3436 54.5096C66.2625 54.4601 66.1985 54.3869 66.1603 54.2998C66.1222 54.2127 66.1117 54.1161 66.1304 54.0229C66.149 53.9297 66.1959 53.8444 66.2645 53.7787C66.3332 53.713 66.4205 53.67 66.5144 53.6556L96.3556 47.458C98.5841 46.9862 98.8037 47.4498 97.0144 48.8488L80.0076 62.1224C79.702 62.3577 79.3333 62.4936 78.9527 62.5111C78.5722 62.5286 78.1989 62.4268 77.8848 62.22L66.3436 54.5096Z" fill="#BDFF00"/>
<path d="M70.15 67.2952L61.61 79.0316C61.5418 79.1225 61.4534 79.1963 61.3518 79.2471C61.2501 79.298 61.138 79.3244 61.0244 79.3244C60.9108 79.3244 60.7987 79.298 60.697 79.2471C60.5954 79.1963 60.507 79.1225 60.4388 79.0316L51.8988 67.344C51.8172 67.2353 51.7676 67.106 51.7554 66.9706C51.7431 66.8352 51.7689 66.699 51.8297 66.5775C51.8905 66.4559 51.9839 66.3536 52.0996 66.2821C52.2152 66.2107 52.3485 66.1728 52.4844 66.1728L69.5644 66.124C69.7003 66.124 69.8336 66.1619 69.9492 66.2333C70.0649 66.3048 70.1583 66.4071 70.2191 66.5287C70.2799 66.6503 70.3056 66.7864 70.2934 66.9218C70.2812 67.0572 70.2316 67.1865 70.15 67.2952Z" fill="#BDFF00"/>
</svg>
